<svg width="24" height="24" viewBox="0 0 24 24" fill="none" xmlns="http://www.w3.org/2000/svg">
<g id="ic:round-double-arrow">
<path id="Vector" d="M11.42 3.92002L5.77 7.96002C5.29 8.30002 5 8.85002 5 9.44002C5 10.93 6.68 11.79 7.89 10.93L12 8.00002L16.11 10.93C17.32 11.8 19 10.93 19 9.44002C19 8.85002 18.71 8.29002 18.23 7.95002L12.58 3.91002C12.23 3.67002 11.77 3.67002 11.42 3.92002Z" fill="white"/>
<path id="Vector_2" d="M11.42 10.92L5.77 14.95C5.29 15.3 5 15.85 5 16.44C5 17.93 6.68 18.8 7.89 17.93L12 15L16.11 17.93C17.32 18.8 19 17.93 19 16.44C19 15.85 18.71 15.29 18.23 14.95L12.58 10.91C12.23 10.67 11.77 10.67 11.42 10.92Z" fill="white"/>
</g>
</svg>
