<svg width="9" height="9" viewBox="0 0 9 9" fill="none" xmlns="http://www.w3.org/2000/svg">
<g id="ic:baseline-copyright" clip-path="url(#clip0_5_58)">
<path id="Vector" d="M4.455 3.4275C4.935 3.45 5.05875 3.85875 5.06625 4.05H5.7375C5.7075 3.3075 5.17875 2.85375 4.44375 2.85375C3.615 2.85375 3 3.375 3 4.5525C3 5.28 3.34875 6.1425 4.44 6.1425C5.2725 6.1425 5.71875 5.52375 5.73 5.03625H5.05875C5.0475 5.2575 4.89 5.55375 4.4475 5.57625C3.95625 5.56125 3.75 5.17875 3.75 4.5525C3.75 3.46875 4.23 3.435 4.455 3.4275ZM4.5 0.75C2.43 0.75 0.75 2.43 0.75 4.5C0.75 6.57 2.43 8.25 4.5 8.25C6.57 8.25 8.25 6.57 8.25 4.5C8.25 2.43 6.57 0.75 4.5 0.75ZM4.5 7.5C2.84625 7.5 1.5 6.15375 1.5 4.5C1.5 2.84625 2.84625 1.5 4.5 1.5C6.15375 1.5 7.5 2.84625 7.5 4.5C7.5 6.15375 6.15375 7.5 4.5 7.5Z" fill="white"/>
</g>
<defs>
<clipPath id="clip0_5_58">
<rect width="9" height="9" fill="white"/>
</clipPath>
</defs>
</svg>
